<?xml version="1.0" encoding="UTF-8"?>
<!DOCTYPE svg PUBLIC "-//W3C//DTD SVG 1.1//EN" "http://www.w3.org/Graphics/SVG/1.1/DTD/svg11.dtd">
<svg xmlns="http://www.w3.org/2000/svg" version="1.1" width="65px" height="65px" style="shape-rendering:geometricPrecision; text-rendering:geometricPrecision; image-rendering:optimizeQuality; fill-rule:evenodd; clip-rule:evenodd" xmlns:xlink="http://www.w3.org/1999/xlink">
<g><path style="opacity:0.72" fill="#0a0802" d="M 17.5,-0.5 C 18.5,-0.5 19.5,-0.5 20.5,-0.5C 20.8333,0.833333 21.1667,0.833333 21.5,-0.5C 29.1667,-0.5 36.8333,-0.5 44.5,-0.5C 45.1667,0.833333 45.8333,0.833333 46.5,-0.5C 47.1667,-0.5 47.8333,-0.5 48.5,-0.5C 51.4825,3.56127 54.8158,7.89461 58.5,12.5C 59.4438,29.8055 59.7772,47.1388 59.5,64.5C 58.5,64.5 57.5,64.5 56.5,64.5C 56.6666,48.4965 56.4999,32.4965 56,16.5C 52.0521,5.59992 44.2188,0.933257 32.5,2.5C 22.1808,1.57777 15.0142,5.9111 11,15.5C 10.6389,23.8944 9.80555,32.2277 8.5,40.5C 10.1439,40.2865 11.6439,40.6198 13,41.5C 14.3158,44.6883 14.8158,48.0217 14.5,51.5C 21.1667,51.5 27.8333,51.5 34.5,51.5C 34.5,55.8333 34.5,60.1667 34.5,64.5C 33.5,64.5 32.5,64.5 31.5,64.5C 31.5,61.8333 31.5,59.1667 31.5,56.5C 25.4908,56.6662 19.4908,56.4995 13.5,56C 11.9905,52.724 11.1572,48.8906 11,44.5C 10.6667,47.1667 10.3333,49.8333 10,52.5C 9.50335,50.1902 9.33669,47.8568 9.5,45.5C 3.79239,45.5076 3.45905,45.0076 8.5,44C 7.20677,43.51 5.87344,43.3433 4.5,43.5C 6.70259,33.972 7.86926,24.3053 8,14.5C 9.12272,11.7513 10.6227,9.25131 12.5,7C 11.5494,6.28248 11.3828,5.44915 12,4.5C 13.8119,2.69974 15.6452,1.03308 17.5,-0.5 Z"/></g>
<g><path style="opacity:1" fill="#f9ce46" d="M 56.5,64.5 C 49.1667,64.5 41.8333,64.5 34.5,64.5C 34.5,60.1667 34.5,55.8333 34.5,51.5C 27.8333,51.5 21.1667,51.5 14.5,51.5C 14.8158,48.0217 14.3158,44.6883 13,41.5C 11.6439,40.6198 10.1439,40.2865 8.5,40.5C 9.80555,32.2277 10.6389,23.8944 11,15.5C 15.0142,5.9111 22.1808,1.57777 32.5,2.5C 44.2188,0.933257 52.0521,5.59992 56,16.5C 56.4999,32.4965 56.6666,48.4965 56.5,64.5 Z"/></g>
<g><path style="opacity:0.01" fill="#000000" d="M 59.5,12.5 C 59.1667,12.5 58.8333,12.5 58.5,12.5C 58.8333,9.83333 59.1667,9.83333 59.5,12.5 Z"/></g>
<g><path style="opacity:0.009" fill="#000000" d="M 59.5,12.5 C 60.5735,13.2506 60.7401,14.2506 60,15.5C 59.5172,14.552 59.3505,13.552 59.5,12.5 Z"/></g>
<g><path style="opacity:1" fill="#1d1809" d="M 21.5,13.5 C 23.1667,13.5 24.8333,13.5 26.5,13.5C 26.5,16.8333 26.5,20.1667 26.5,23.5C 25.5,23.5 24.5,23.5 23.5,23.5C 23.7681,19.917 23.1014,16.5836 21.5,13.5 Z"/></g>
<g><path style="opacity:1" fill="#191507" d="M 32.5,12.5 C 34.1765,13.1834 34.8432,14.5168 34.5,16.5C 35.8333,16.5 37.1667,16.5 38.5,16.5C 38.5,17.5 38.5,18.5 38.5,19.5C 37.1667,19.5 35.8333,19.5 34.5,19.5C 33.8333,24.8333 33.1667,24.8333 32.5,19.5C 31.1667,19.5 29.8333,19.5 28.5,19.5C 28.5,18.5 28.5,17.5 28.5,16.5C 29.8333,16.5 31.1667,16.5 32.5,16.5C 32.5,15.1667 32.5,13.8333 32.5,12.5 Z"/></g>
<g><path style="opacity:1" fill="#0b0802" d="M 39.5,13.5 C 41.1667,13.5 42.8333,13.5 44.5,13.5C 44.8204,16.8984 44.487,20.2317 43.5,23.5C 42.52,20.9135 42.1866,18.2469 42.5,15.5C 40.8212,15.7148 39.8212,15.0481 39.5,13.5 Z"/></g>
<g><path style="opacity:0.015" fill="#000000" d="M 61.5,64.5 C 61.1667,64.5 60.8333,64.5 60.5,64.5C 60.8333,0.5 61.1667,0.5 61.5,64.5 Z"/></g>
<g><path style="opacity:0.01" fill="#000000" d="M 4.5,29.5 C 5.59832,30.6009 5.76498,31.9343 5,33.5C 4.50999,32.2068 4.34332,30.8734 4.5,29.5 Z"/></g>
<g><path style="opacity:0.01" fill="#000000" d="M 3.5,34.5 C 4.59832,35.6009 4.76498,36.9343 4,38.5C 3.50999,37.2068 3.34332,35.8734 3.5,34.5 Z"/></g>
<g><path style="opacity:0.008" fill="#000000" d="M 2.5,39.5 C 3.59832,40.6009 3.76498,41.9343 3,43.5C 2.50999,42.2068 2.34332,40.8734 2.5,39.5 Z"/></g>
</svg>
